HIERARCHY
ROOT Junyuan_V1:Solving:Hips
{
	OFFSET 0.000000 0.000000 0.000000
	CHANNELS 6 Xposition Yposition Zposition Xrotation Yrotation Zrotation
	JOINT Junyuan_V1:Solving:Spine
	{
		OFFSET 0.000000 -8.943189 2.778120
		CHANNELS 6 Xposition Yposition Zposition Xrotation Yrotation Zrotation
		JOINT Junyuan_V1:Solving:Spine1
		{
			OFFSET 0.000000 -9.944814 1.753542
			CHANNELS 6 Xposition Yposition Zposition Xrotation Yrotation Zrotation
			JOINT Junyuan_V1:Solving:Spine2
			{
				OFFSET 0.000000 -10.059801 0.880121
				CHANNELS 6 Xposition Yposition Zposition Xrotation Yrotation Zrotation
				JOINT Junyuan_V1:Solving:Spine3
				{
					OFFSET 0.000000 -10.098228 0.000000
					CHANNELS 6 Xposition Yposition Zposition Xrotation Yrotation Zrotation
					JOINT Junyuan_V1:Solving:Neck
					{
						OFFSET 0.000000 -12.983437 -1.298342
						CHANNELS 6 Xposition Yposition Zposition Xrotation Yrotation Zrotation
						JOINT Junyuan_V1:Solving:Neck1
						{
							OFFSET 0.000000 -8.085114 -0.707354
							CHANNELS 6 Xposition Yposition Zposition Xrotation Yrotation Zrotation
							JOINT Junyuan_V1:Solving:Head
							{
								OFFSET 0.000000 -7.992695 -1.409326
								CHANNELS 6 Xposition Yposition Zposition Xrotation Yrotation Zrotation
								JOINT Junyuan_V1:Solving:HeadEnd
								{
									OFFSET 0.000000 -9.728081 0.000002
									CHANNELS 6 Xposition Yposition Zposition Xrotation Yrotation Zrotation
									End Site
									{
										OFFSET 0.000000 -9.728081 0.000002
									}
								}
							}
						}
					}
					JOINT Junyuan_V1:Solving:RightShoulder
					{
						OFFSET 0.000000 -9.273884 -6.154356
						CHANNELS 6 Xposition Yposition Zposition Xrotation Yrotation Zrotation
						JOINT Junyuan_V1:Solving:RightArm
						{
							OFFSET -19.110832 -0.000008 0.000000
							CHANNELS 6 Xposition Yposition Zposition Xrotation Yrotation Zrotation
							JOINT Junyuan_V1:Solving:RightForeArm
							{
								OFFSET -27.916382 -0.000008 0.000000
								CHANNELS 6 Xposition Yposition Zposition Xrotation Yrotation Zrotation
								JOINT Junyuan_V1:Solving:RightHand
								{
									OFFSET -21.757072 -0.000008 0.000000
									CHANNELS 6 Xposition Yposition Zposition Xrotation Yrotation Zrotation
									JOINT Junyuan_V1:Solving:RightHandThumb1
									{
										OFFSET -3.656471 2.766285 -2.718907
										CHANNELS 6 Xposition Yposition Zposition Xrotation Yrotation Zrotation
										End Site
										{
											OFFSET -5.307442 0.000000 -5.356520
										}
									}
									JOINT Junyuan_V1:Solving:RightHandMiddle1
									{
										OFFSET -9.750572 -0.000004 0.062504
										CHANNELS 6 Xposition Yposition Zposition Xrotation Yrotation Zrotation
										End Site
										{
											OFFSET -7.540642 -0.000004 0.000000
										}
									}
								}
							}
						}
					}
					JOINT Junyuan_V1:Solving:LeftShoulder
					{
						OFFSET 0.000000 -9.273884 -6.154356
						CHANNELS 6 Xposition Yposition Zposition Xrotation Yrotation Zrotation
						JOINT Junyuan_V1:Solving:LeftArm
						{
							OFFSET 19.110832 -0.000008 0.000000
							CHANNELS 6 Xposition Yposition Zposition Xrotation Yrotation Zrotation
							JOINT Junyuan_V1:Solving:LeftForeArm
							{
								OFFSET 27.916382 -0.000008 0.000000
								CHANNELS 6 Xposition Yposition Zposition Xrotation Yrotation Zrotation
								JOINT Junyuan_V1:Solving:LeftHand
								{
									OFFSET 21.757072 -0.000008 0.000000
									CHANNELS 6 Xposition Yposition Zposition Xrotation Yrotation Zrotation
									JOINT Junyuan_V1:Solving:LeftHandThumb1
									{
										OFFSET 3.656471 2.766285 -2.718907
										CHANNELS 6 Xposition Yposition Zposition Xrotation Yrotation Zrotation
										End Site
										{
											OFFSET 5.307442 0.000000 -5.356520
										}
									}
									JOINT Junyuan_V1:Solving:LeftHandMiddle1
									{
										OFFSET 9.750572 -0.000004 0.062504
										CHANNELS 6 Xposition Yposition Zposition Xrotation Yrotation Zrotation
										End Site
										{
											OFFSET 7.540642 -0.000004 0.000000
										}
									}
								}
							}
						}
					}
				}
			}
		}
	}
	JOINT Junyuan_V1:Solving:RightUpLeg
	{
		OFFSET -8.521003 0.000000 0.000000
		CHANNELS 6 Xposition Yposition Zposition Xrotation Yrotation Zrotation
		JOINT Junyuan_V1:Solving:RightLeg
		{
			OFFSET 0.000000 41.622898 -0.000006
			CHANNELS 6 Xposition Yposition Zposition Xrotation Yrotation Zrotation
			JOINT Junyuan_V1:Solving:RightFoot
			{
				OFFSET 0.000000 37.258389 -0.000006
				CHANNELS 6 Xposition Yposition Zposition Xrotation Yrotation Zrotation
				JOINT Junyuan_V1:Solving:RightForeFoot
				{
					OFFSET 0.000000 3.234154 -0.000000
					CHANNELS 6 Xposition Yposition Zposition Xrotation Yrotation Zrotation
					JOINT Junyuan_V1:Solving:RightToeBase
					{
						OFFSET 0.000000 0.000000 -12.665958
						CHANNELS 6 Xposition Yposition Zposition Xrotation Yrotation Zrotation
						JOINT Junyuan_V1:Solving:RightToeBaseEnd
						{
							OFFSET 0.000000 0.000000 -2.833065
							CHANNELS 6 Xposition Yposition Zposition Xrotation Yrotation Zrotation
							End Site
							{
								OFFSET 0.000000 -2.833061 0.000002
							}
						}
					}
				}
			}
		}
	}
	JOINT Junyuan_V1:Solving:LeftUpLeg
	{
		OFFSET 8.521003 0.000000 0.000000
		CHANNELS 6 Xposition Yposition Zposition Xrotation Yrotation Zrotation
		JOINT Junyuan_V1:Solving:LeftLeg
		{
			OFFSET 0.000000 41.622898 -0.000006
			CHANNELS 6 Xposition Yposition Zposition Xrotation Yrotation Zrotation
			JOINT Junyuan_V1:Solving:LeftFoot
			{
				OFFSET 0.000000 37.258389 -0.000006
				CHANNELS 6 Xposition Yposition Zposition Xrotation Yrotation Zrotation
				JOINT Junyuan_V1:Solving:LeftForeFoot
				{
					OFFSET 0.000000 3.234154 -0.000000
					CHANNELS 6 Xposition Yposition Zposition Xrotation Yrotation Zrotation
					JOINT Junyuan_V1:Solving:LeftToeBase
					{
						OFFSET 0.000000 0.000000 -12.665958
						CHANNELS 6 Xposition Yposition Zposition Xrotation Yrotation Zrotation
						JOINT Junyuan_V1:Solving:LeftToeBaseEnd
						{
							OFFSET 0.000000 0.000000 -4.326123
							CHANNELS 6 Xposition Yposition Zposition Xrotation Yrotation Zrotation
							End Site
							{
								OFFSET 0.000000 -4.326126 0.000000
							}
						}
					}
				}
			}
		}
	}
}
MOTION
Frames: 5
Frame Time: 0.041667
16.723635 35.499645 -88.393700 89.428220 173.442791 1.136019 -0.000000 -8.943182 2.778121 13.641511 0.570394 1.777565 -0.000000 -9.944802 1.753527 -0.520320 0.050948 0.187481 -0.000000 -10.059780 0.880127 -5.254307 2.587781 -0.515765 0.000002 -10.098219 0.000003 -3.752589 0.349731 -1.404394 0.000001 -12.983425 -1.298356 6.823887 0.880971 3.501842 -0.000002 -8.085105 -0.707355 -4.373850 0.251959 -1.643691 -0.000002 -7.992707 -1.409321 -2.689586 0.958005 -2.427372 0.000001 -9.728088 -0.000004 0.000001 -0.000000 -0.000000 -0.000003 -9.273842 -6.154374 -0.000006 22.594170 11.556613 -19.110819 -0.000002 0.000005 2.416187 -37.233004 -88.020866 -27.916382 0.000008 0.000005 2.140272 -31.468584 1.117668 -21.757048 -0.000023 -0.000003 0.921832 6.057569 -8.669473 -3.656480 2.766274 -2.718907 0.000006 -0.000005 -0.000001 -9.750601 -0.000003 0.062503 -0.000001 0.000000 0.000002 0.000001 -9.273846 -6.154374 -0.000002 -16.423753 -13.147743 19.110830 0.000002 0.000016 -4.553686 40.863656 93.216462 27.916374 -0.000010 -0.000011 8.632412 25.104396 -3.685338 21.757076 -0.000014 0.000004 0.420442 -1.477121 15.890228 3.656448 2.766286 -2.718895 0.000002 -0.000015 -0.000002 9.750576 0.000003 0.062512 0.000004 -0.000001 -0.000004 -8.521006 0.000001 0.000003 -3.403737 16.793133 -0.808353 0.000001 41.622890 0.000004 8.556696 0.000003 0.000000 -0.000000 37.258389 0.000001 3.571107 -4.043904 8.936011 0.000001 3.234146 0.000006 -0.000000 -0.000002 -0.000003 0.000002 -0.000014 -12.665965 -2.707423 -0.000001 -0.000000 -0.000003 -0.000007 -2.833073 0.000001 -0.000000 0.000000 8.520998 -0.000009 0.000000 -1.272425 -1.696049 -4.753251 0.000001 41.622906 -0.000020 3.235879 0.000001 0.000001 0.000002 37.258381 0.000005 6.556870 12.326627 9.049137 -0.000002 3.234154 -0.000008 0.000000 -0.000000 -0.000001 0.000001 0.000004 -12.665956 3.224896 -0.000000 -0.000003 0.000000 0.000000 -4.326123 0.000001 -0.000001 -0.000000 
16.698349 35.670685 -88.376892 89.310857 173.548591 1.123662 -0.000000 -8.943192 2.778121 13.799657 0.587556 1.904464 0.000001 -9.944798 1.753547 -0.506880 0.049272 0.189985 -0.000001 -10.059794 0.880132 -5.261664 2.577996 -0.490804 0.000001 -10.098237 0.000005 -3.782200 0.375285 -1.435982 0.000004 -12.983393 -1.298334 6.810946 0.837830 3.401501 0.000002 -8.085107 -0.707354 -4.386118 0.273171 -1.627343 0.000001 -7.992688 -1.409344 -2.704161 0.957612 -2.419890 0.000002 -9.728104 0.000001 0.000000 0.000000 -0.000000 -0.000000 -9.273857 -6.154353 -0.000014 22.430145 11.677490 -19.110815 -0.000020 0.000010 2.010304 -36.114407 -88.371214 -27.916410 -0.000003 0.000009 3.679475 -31.031851 1.898739 -21.757080 0.000000 0.000003 0.925381 5.688857 -9.254858 -3.656458 2.766277 -2.718915 -0.000002 0.000005 -0.000002 -9.750585 -0.000016 0.062504 -0.000000 -0.000000 0.000003 0.000007 -9.273861 -6.154351 -0.000012 -16.225265 -13.279207 19.110828 -0.000004 0.000010 -4.840363 40.947592 93.523198 27.916376 0.000000 0.000005 9.574190 25.354185 -4.131204 21.757059 -0.000013 0.000002 0.433757 -1.483346 16.301795 3.656494 2.766279 -2.718915 -0.000004 -0.000007 -0.000001 9.750596 0.000001 0.062495 -0.000004 0.000000 0.000001 -8.521004 -0.000002 0.000002 -3.941612 16.360818 -0.715799 -0.000002 41.622894 0.000001 9.058899 0.000004 -0.000000 0.000005 37.258396 0.000005 3.505327 -3.622825 8.993635 0.000002 3.234146 -0.000008 -0.000000 -0.000000 -0.000001 -0.000001 -0.000011 -12.665960 -2.871399 0.000002 -0.000002 0.000001 -0.000008 -2.833063 -0.000000 -0.000000 -0.000001 8.521000 -0.000018 -0.000010 -1.591945 -1.780988 -4.728632 0.000002 41.622898 -0.000005 3.449379 0.000002 -0.000000 0.000002 37.258389 0.000004 6.469171 12.346728 9.209351 -0.000001 3.234146 0.000003 -0.000002 0.000000 -0.000001 0.000002 -0.000006 -12.665962 3.425983 0.000000 -0.000003 0.000002 -0.000007 -4.326130 0.000002 0.000000 -0.000001 
16.676102 35.837906 -88.357567 89.219305 173.690536 1.089522 -0.000000 -8.943202 2.778109 13.970357 0.618542 2.047512 -0.000002 -9.944810 1.753537 -0.477155 0.045462 0.201579 0.000001 -10.059783 0.880132 -5.260152 2.545217 -0.459733 0.000000 -10.098230 -0.000002 -3.814628 0.412233 -1.463268 0.000000 -12.983460 -1.298327 6.798561 0.771460 3.309175 0.000001 -8.085108 -0.707380 -4.398539 0.306423 -1.616774 0.000001 -7.992691 -1.409322 -2.726447 0.967546 -2.432645 0.000000 -9.728050 -0.000001 -0.000000 0.000000 -0.000000 0.000001 -9.273891 -6.154335 -0.000010 22.144440 12.013102 -19.110815 -0.000022 0.000013 0.948240 -32.714130 -89.663541 -27.916361 -0.000001 0.000005 7.437542 -29.491719 3.677134 -21.757072 -0.000004 0.000006 0.962031 4.688381 -11.609505 -3.656475 2.766295 -2.718905 0.000003 -0.000000 -0.000005 -9.750566 -0.000011 0.062508 0.000002 0.000001 -0.000001 0.000004 -9.273911 -6.154338 -0.000009 -16.079628 -13.426774 19.110809 0.000015 0.000012 -5.075633 41.277487 93.710933 27.916391 -0.000001 0.000004 10.212194 25.703460 -4.467592 21.757092 -0.000010 0.000006 0.473318 -1.605809 16.425809 3.656479 2.766291 -2.718905 -0.000000 -0.000009 -0.000001 9.750591 0.000007 0.062503 0.000002 -0.000002 -0.000004 -8.521002 -0.000024 -0.000008 -4.500728 15.990627 -0.572926 -0.000005 41.622887 -0.000002 9.653180 0.000000 0.000001 0.000003 37.258389 -0.000010 3.361059 -3.321001 8.926846 -0.000004 3.234146 0.000003 0.000001 -0.000000 -0.000001 0.000003 -0.000006 -12.665952 -2.907834 0.000000 0.000000 0.000000 -0.000008 -2.833068 -0.000000 -0.000001 -0.000002 8.521001 -0.000006 -0.000011 -1.810538 -1.606978 -4.654569 0.000001 41.622906 -0.000010 3.570058 0.000002 0.000001 0.000001 37.258396 -0.000002 6.373368 11.929252 9.282376 -0.000001 3.234146 -0.000000 -0.000002 -0.000000 -0.000001 0.000002 0.000002 -12.665967 3.718597 -0.000001 -0.000001 -0.000001 -0.000008 -4.326124 -0.000002 -0.000000 -0.000001 
16.647587 35.995586 -88.334251 89.164192 173.835240 1.024222 0.000003 -8.943173 2.778111 14.159101 0.677594 2.202288 -0.000004 -9.944804 1.753542 -0.440743 0.041150 0.223196 -0.000001 -10.059798 0.880126 -5.246361 2.527668 -0.430846 0.000001 -10.098204 -0.000005 -3.837995 0.438431 -1.493351 0.000002 -12.983424 -1.298338 6.758635 0.714861 3.246982 -0.000001 -8.085123 -0.707365 -4.408257 0.323915 -1.632264 -0.000000 -7.992673 -1.409315 -2.716649 0.962883 -2.418884 0.000004 -9.728096 0.000009 0.000000 0.000000 -0.000000 0.000000 -9.273922 -6.154358 -0.000004 21.934941 12.196447 -19.110821 -0.000021 0.000011 0.380270 -31.001252 -90.175197 -27.916380 0.000001 0.000011 9.444325 -28.688731 4.565578 -21.757072 -0.000012 0.000003 0.944649 3.960199 -13.427872 -3.656448 2.766282 -2.718909 -0.000000 0.000003 -0.000009 -9.750566 -0.000004 0.062495 -0.000001 -0.000002 -0.000001 0.000005 -9.273926 -6.154358 -0.000003 -15.992589 -13.565416 19.110821 -0.000019 0.000009 -5.184327 42.224609 93.679234 27.916401 -0.000001 0.000002 10.120743 26.343645 -4.528961 21.757067 -0.000011 -0.000001 0.571980 -1.995400 15.998697 3.656450 2.766269 -2.718906 0.000007 0.000003 0.000003 9.750542 -0.000016 0.062503 0.000013 0.000001 0.000000 -8.521003 0.000002 -0.000005 -5.248904 16.882916 -0.232050 0.000002 41.622913 0.000002 10.714618 -0.000000 0.000001 -0.000000 37.258385 -0.000009 3.098686 -4.364502 9.136514 -0.000003 3.234154 -0.000005 -0.000000 -0.000000 -0.000002 0.000004 0.000008 -12.665963 -3.008405 0.000001 -0.000001 0.000001 -0.000008 -2.833072 -0.000000 -0.000000 -0.000000 8.521005 0.000005 -0.000003 -1.909342 -1.084547 -4.546424 0.000001 41.622898 -0.000009 3.579384 0.000002 -0.000000 0.000001 37.258381 -0.000003 6.295525 11.305257 9.434187 -0.000001 3.234146 -0.000001 -0.000000 -0.000000 -0.000001 0.000001 -0.000006 -12.665958 3.959030 0.000000 -0.000002 0.000001 -0.000008 -4.326126 0.000000 -0.000000 -0.000001 
16.621275 36.160999 -88.336761 89.162300 174.013194 0.888049 -0.000004 -8.943197 2.778111 14.396570 0.718224 2.444606 0.000004 -9.944826 1.753532 -0.370739 0.033266 0.241700 0.000002 -10.059800 0.880119 -5.220387 2.570597 -0.412899 -0.000002 -10.098248 0.000007 -3.859718 0.446658 -1.537912 -0.000001 -12.983439 -1.298353 6.721302 0.728258 3.246754 -0.000004 -8.085135 -0.707349 -4.421300 0.260821 -1.644793 0.000001 -7.992669 -1.409322 -2.776187 0.973079 -2.453741 0.000002 -9.728073 0.000005 0.000000 0.000000 0.000000 -0.000001 -9.273914 -6.154363 -0.000009 21.705182 12.224197 -19.110823 -0.000008 -0.000001 0.193212 -31.133454 -90.017344 -27.916353 -0.000008 0.000012 9.380574 -28.708501 4.537181 -21.757071 -0.000010 -0.000000 0.969149 3.738768 -14.543317 -3.656477 2.766281 -2.718915 0.000004 0.000002 -0.000007 -9.750582 0.000009 0.062495 0.000001 0.000002 -0.000002 0.000001 -9.273918 -6.154363 -0.000005 -15.881219 -13.624977 19.110817 0.000008 0.000008 -5.331139 42.018180 93.727817 27.916391 -0.000007 0.000009 11.022178 26.513754 -4.969549 21.757086 -0.000007 0.000001 0.592461 -2.035627 16.231344 3.656456 2.766277 -2.718895 -0.000004 0.000002 -0.000000 9.750556 0.000009 0.062507 -0.000007 -0.000002 -0.000002 -8.521006 0.000004 -0.000006 -5.838439 16.706713 0.061667 0.000000 41.622894 -0.000010 11.492563 0.000002 -0.000000 -0.000000 37.258389 -0.000008 3.010657 -4.417371 8.900285 0.000004 3.234146 0.000014 -0.000001 0.000000 -0.000001 0.000004 -0.000005 -12.665960 -3.104857 -0.000001 -0.000001 0.000000 0.000000 -2.833075 -0.000001 -0.000002 -0.000001 8.521004 -0.000013 -0.000008 -2.143574 -1.305668 -4.409640 0.000001 41.622894 -0.000002 3.826444 -0.000000 -0.000001 0.000002 37.258385 -0.000006 6.087813 11.470133 9.129250 -0.000001 3.234154 0.000012 -0.000000 0.000001 0.000000 -0.000000 0.000000 -12.665951 4.716430 0.000000 0.000000 0.000002 -0.000007 -4.326122 0.000002 0.000000 -0.000000 
